<svg xmlns="http://www.w3.org/2000/svg" width="600" height="600" viewBox="0 0 600 600">
  <!-- Transparent background; black strokes so your CSS `invert` turns them light -->
  <g fill="#fff" fill-opacity="0.06" d="M600 325.1v-1.17" stroke="#000" stroke-opacity=".35" stroke-width="1.2">
    <path d="M-100 30 C 40 -10, 200 60, 340 30 S 640 60, 800 30" />
    <path d="M-100 70 C 20 40, 180 110, 330 70 S 640 110, 800 70" />
    <path d="M-100 110 C 60 70, 210 150, 360 110 S 660 150, 820 110" />
    <path d="M-100 150 C 0 120, 150 190, 320 150 S 640 190, 800 150" />
    <path d="M-100 190 C 80 150, 230 230, 380 190 S 680 230, 820 190" />
    <path d="M-100 230 C 10 200, 170 270, 330 230 S 640 270, 800 230" />
    <path d="M-100 270 C 70 230, 220 310, 380 270 S 700 310, 840 270" />
    <path d="M-100 310 C 0 280, 160 350, 330 310 S 660 350, 820 310" />
    <path d="M-100 350 C 60 310, 210 390, 380 350 S 700 390, 860 350" />
    <path d="M-100 390 C -10 360, 140 430, 320 390 S 660 430, 820 390" />
    <path d="M-100 430 C 50 390, 200 470, 380 430 S 720 470, 900 430" />
    <path d="M-100 470 C -20 440, 130 510, 320 470 S 680 510, 860 470" />
    <path d="M-100 510 C 40 470, 200 550, 380 510 S 740 550, 920 510" />
    <path d="M-100 550 C -30 520, 130 590, 330 550 S 720 590, 910 550" />
  </g>
</svg>
